<svg height="100" viewBox="0 0 206 308" fill="none" xmlns="http://www.w3.org/2000/svg">
<path d="M0.5 256.5C0.5 228.195 23.4454 205.25 51.75 205.25H103V256.5C103 284.805 80.0546 307.75 51.75 307.75V307.75C23.4454 307.75 0.5 284.805 0.5 256.5V256.5Z" fill="#0ACF83"/>
<path d="M103 154C103 125.696 125.945 102.75 154.25 102.75V102.75C182.554 102.75 205.5 125.695 205.5 154V154C205.5 182.305 182.554 205.25 154.25 205.25V205.25C125.945 205.25 103 182.304 103 154V154Z" fill="#1ABCFE"/>
<path d="M0.5 154C0.5 182.305 23.4454 205.25 51.75 205.25H103L103 102.75L51.75 102.75C23.4454 102.75 0.5 125.695 0.5 154V154Z" fill="#A259FF"/>
<path d="M103 0.25V102.75H154.25C182.555 102.75 205.5 79.8046 205.5 51.5V51.5C205.5 23.1954 182.555 0.25 154.25 0.25L103 0.25Z" fill="#FF7262"/>
<path d="M0.5 51.5C0.5 79.8046 23.4454 102.75 51.75 102.75L103 102.75L103 0.25L51.75 0.25C23.4454 0.25 0.5 23.1954 0.5 51.5V51.5Z" fill="#F24E1E"/>
</svg>
